<?xml version="1.0"?><svg viewBox="0 0 4000 4000" xmlns="http://www.w3.org/2000/svg" xmlns:xlink="http://www.w3.org/1999/xlink"><g id="tail" fill="none"><path d="M2275.11 3290.64c-50.77-7.42-115.16-32.27-196.86-76-11.87-6.35-16.67-21.85-10.25-33.84 6.35-11.87 21.85-16.66 33.84-10.25 75.45 40.37 136.18 64.12 180.5 70.6 28.93 4.23 49.75 1 61.88-9.64 13.61-11.92 12.39-33 8.83-72.39-4.17-46.12-9.36-103.53 19.78-169.51 44-99.72 153.63-194.53 269.09-176.7 73.33 11.36 143.6 66.19 159.73 140.59 13.73 63.36-6.02 150.17-73.53 174.43-44.77 16-95.93-2.36-130.84-32.08-10.44-8.68-11.95-25-3.06-35.44 8.81-10.34 25.15-11.64 35.48-2.62.43.36 43.66 36.65 81.49 23.06 42.84-15.38 49.77-78.95 41.56-116.78-11.75-54.23-65.6-93.57-118.51-101.77-92.84-14.33-180.8 68.49-215.72 147.49-23.91 54.16-19.56 102.32-15.72 144.81 4 43.84 7.71 85.25-25.67 114.5-27.66 24.4-67.07 26.8-102.02 21.54z" fill="#4477cf" stroke="#333" stroke-width="5" stroke-miterlimit="10"/><path d="M2787.15 2965.67c11.06 51.03 1.18 114.55-37.82 152.08 51.41-33.69 65.07-107.55 52.82-164.08-16.13-74.4-86.39-129.24-159.73-140.6-66.26-10.23-131.78 18.56-181.54 60.82 114.12-80.75 293.29-60.35 326.27 91.78z" fill="#000" fill-opacity="0.260000"/><path d="M2718.12 3078.2c-27.03 31.45-75.59 15.27-102.89-8.23a25.04 25.04 0 00-23.13-5 25.2 25.2 0 0119.93-12.89 25.03 25.03 0 0118.2 5.88c22.07 19.51 59.84 35.18 87.89 20.24zM2074 3173.64c3.5-3 15.5-9 23-5.5 6.98 3.26 15.34 7.39 24.73 12.03 49.42 24.42 127.47 62.97 183.77 62.97 50 0 54.5-25 47.5-91a442 442 0 003.06 12.51c9.62 37.75 24.09 94.49-50.56 94.49-81.5 0-208.79-70.57-231.5-85.5z" fill="#000" fill-opacity="0.260000"/></g><g id="arms" fill="none"><path d="m1587 3147c36.5 0 65.66-32.58 62.04-68.42-5.42-63.52 18.62-132.19 65.95-198.39 43.06-60.25 89.21-93.26 53.71-132.19-35.5-38.94-115.56 3.92-155.4 59.5-65.71 91.92-97.19 189.11-88.63 283.68 3.19 31.47 25.83 55.82 62.33 55.82z" fill="#4477cf" stroke="#333" stroke-miterlimit="10" stroke-width="5"/><path d="m1570.65 3145.22c-62.15-107.22 43.67-345.19 176.18-410.41-40.01-10.61-100.55 26.68-133.53 72.69-65.71 91.92-97.19 189.11-88.63 283.68 2.68 26.46 19.12 47.89 45.98 54.04z" fill="#000" fill-opacity="0.180000"/><path d="m2413 3147c-36.5 0-65.66-32.58-62.04-68.42 5.42-63.52-18.62-132.19-65.95-198.39-43.06-60.25-89.21-93.26-53.71-132.19 35.5-38.94 115.56 3.92 155.4 59.5 65.71 91.92 97.19 189.11 88.63 283.68-3.19 31.47-25.83 55.82-62.33 55.82z" fill="#4477cf" stroke="#333" stroke-miterlimit="10" stroke-width="5"/><path d="m2429.35 3145.22c62.15-107.22-43.67-345.19-176.18-410.41 40.01-10.61 100.55 26.68 133.53 72.69 65.71 91.92 97.19 189.11 88.63 283.68-2.69 26.46-19.12 47.89-45.98 54.04z" fill="#000" fill-opacity="0.180000"/></g><g id="bodyUpper" fill="none"><path d="m2000 2548c154 0 220 135 260 246s58 220 58 292c0 152-138.68 305.46-318 307-175.53 1.51-318-155-318-307 0-72 17.7-181.5 58-292 40-111 106-246 260-246z" fill="#4477cf" stroke="#333" stroke-miterlimit="10" stroke-width="5"/><path d="m2000 3393c-175.67 1.59-330-157-318-337 10 148 145.15 288.48 318 287s308-139 318-287c12 180-142.33 335.41-318 337z" fill="#000" fill-opacity="0.180000"/><path d="m2000 2672c104 0 160 68 174 128 34.49 147.82 64 274 4 350s-134.95 82-178 82c-47.55 0-118-6-178-82s-32.44-193.83 4-350c14-60 70-128 174-128z" fill="#f7c394" stroke="#333" stroke-miterlimit="10" stroke-width="5"/><path d="m2000 3232c-136 0-224-94-213-216 4 115 96 190 213 190s209-75 213-190c11 122-77 216-213 216z" fill="#000" fill-opacity=".1"/></g><g id="shirtPants" fill="none"><path d="m1959.37 3446.51c2.7-47 10.47-88.26 20.16-124.51-60.03-38.5-128.53-42-183.27-42-15.29 54.22-23.91 105.53-25.58 134.62-2.93 51.08 36.82 110.33 88.4 113.29 47.48 2.31 97.45-31.8 100.29-81.4z" fill="#dbce37" stroke="#333" stroke-miterlimit="10" stroke-width="5"/><path d="m1790.37 3302.01c33.91 29.41 72.81 53.12 114.63 69.46-4.79 15.78-15.8 36.65-29.38 46.53-35.41 25.76-67.38 7.09-75.94-29.68-2.66-11.47-4.85-20.88-11.19-21.76-5.17-.71-9.44 4.71-13.86 12.47 3.32-22.18 8.58-48.82 15.74-77.02z" fill="#b092c2" stroke="#333" stroke-linecap="round" stroke-linejoin="round" stroke-width="5"/><path d="m1769.48 3414.5c51.5-7 148-7 188.5 34 .34-3.09 1.44-11.94 1.66-15.04-42.16-36.96-138.16-39.46-188.02-32.46-.26 3.3-1.86 10.13-2.14 13.5z" fill="#000" fill-opacity=".15"/><path d="m1785.48 3325c47.76 44.29 108.88 69.13 178 78.5.58-5.01 1.81-12.18 2.5-17-68.6-8.88-128.2-37.6-176-81-2 6-3.62 15.27-4.5 19.5z" fill="#000" fill-opacity=".15"/><path d="m2040.63 3446.51c-2.69-47-10.46-88.26-20.15-124.51 60.03-38.5 128.53-42 183.27-42 15.29 54.22 23.9 105.53 25.57 134.62 2.94 51.08-36.81 110.33-88.4 113.29-47.47 2.31-97.44-31.8-100.29-81.4z" fill="#dbce37" stroke="#333" stroke-miterlimit="10" stroke-width="5"/><path d="m2211.2 3308.25c4.27 17.38 7.81 34.07 10.61 49.38-17.31-1.63-8.92 39.88-20.39 57.03-20.98 31.4-109.34-2.01-98.96-40.92 39.68-15.09 76.82-37.5 108.74-65.49z" fill="#b092c2" stroke="#333" stroke-linecap="round" stroke-linejoin="round" stroke-width="5"/><path d="m2230.52 3414.5c-51.5-7-148-7-188.5 34-.33-3.09-1.44-11.94-1.66-15.04 42.16-36.96 138.16-39.46 188.02-32.46.27 3.3 1.87 10.13 2.14 13.5z" fill="#000" fill-opacity=".15"/><path d="m2214.52 3325c-47.76 44.29-108.88 69.13-178 78.5-.58-5.01-1.8-12.18-2.5-17 68.6-8.88 128.2-37.6 176-81 2 6 3.62 15.27 4.5 19.5z" fill="#000" fill-opacity=".15"/><g stroke="#333" stroke-width="5"><path d="m2306.1 3164.09c-37.21 122.39-157.75 227.64-306.1 228.91-145.28 1.25-267.91-105.74-305.86-228.84 221.01 65.41 391.01 65.26 611.96-.07z" fill="#e8dc4b"/><g fill="#b092c2" stroke-linecap="round" stroke-linejoin="round"><path d="m1813.57 3330.36c-16.61-12.35-32-26.18-45.97-41.17 9.56-1.58 18.42-4.62 20.23-11.54 1.86-7.18-6.46-13.59-16.15-21.05-28.08-21.62-33.62-48.2-2.89-71.81 17.18 4.06 34.14 7.67 50.91 10.86 7.1 19.85 8.16 45.91 15.54 45.82 6.67 0 8.56-21.36 14.44-40.55 30.41 4.89 60.3 8.33 89.97 10.31 34.91 41.33 25.57 66.31-27.05 67.03-16.72.22-31.59.42-33.39 7.48-6.08 23.58 78.64 32.43 57.74 67.82-5.38 9.58-17.81 18.75-31.93 24.55-23.33-7.66-45.51-18.06-66.18-30.68-3.6-23.93-10.29-43-25.27-17.07z"/><path d="m2157.16 3349.47c-3.61-13.26-5.78-40.15-15.45-42.09-8.97-1.8-15.47 18.3-25.87 33.59-27.44 40.41-92.14-15.89-76.41-50.2 9.32-20.39 61.44-7.32 65.63-23.18 5.24-19.85-40.58-26.72-38.33-56.81 23.47-1.73 47.09-4.37 71-7.92 4.13 16.45 5.78 33.12 11.46 33.39 6.25.3 8-19.72 13.54-37.41 18.93-3.28 38.07-7.12 57.5-11.51 18.33 14.21 39.33 36.29 46.05 59.82-6.26 9.29-13.02 18.31-20.25 27-17.45.48-52.91-5.79-55.86 5.69-1.81 6.98 12.42 15.22 27.05 24.85-18.11 16.95-38.25 32.06-60.06 44.78z"/></g></g><path d="m1693.55 3163.9c45.95 135.1 164.84 230.39 306.45 229.1 140.54-1.28 264-96 306.83-228.63-7.3 2.15-13.54 4.24-20.74 6.25-51.29 98.95-158.4 174.29-286.09 175.38-128.37 1.1-235.95-76.4-286.91-176.6-7.46-2.09-11.97-3.26-19.54-5.5z" fill="#000" fill-opacity=".15"/></g><g id="ears" fill="none"><path d="m3133.19 1832.12c111.1 102 66.32 309.29-9.09 427.16-107.46 168-353.47 273.75-479.46 184.37-131.58-93.35-114.4-386.92 39.2-539.32 114.68-113.78 334.45-177.69 449.35-72.21z" fill="#f7c394" stroke="#333" stroke-miterlimit="10" stroke-width="5"/><path d="m3003.49 1952.22c66 68.19 30.1 196.68-21.65 267.88-73.75 101.45-232.17 158.69-307.94 97.86-79.14-63.53-57.39-247.22 44.75-337.18 76.26-67.16 216.64-99.08 284.84-28.56z" fill="#ffc9a1"/><path d="m3124.1 2259.28c-60.69 94.85-195.1 203.22-346.6 216.72 106.36-25 260.01-133.85 306.64-206.72 75.41-117.87 115.36-338.97 9.09-427.16-32.41-26.89-114.73-65.12-227.73-45.12 138-42.5 222.79-6.13 267.73 35.12 111.06 101.99 66.28 309.29-9.13 427.16z" fill="#000" fill-opacity=".1"/><path d="m866.818 1832.12c-111.1 102-66.32 309.29 9.09 427.16 107.46 168 353.472 273.75 479.462 184.37 131.58-93.35 114.4-386.92-39.2-539.32-114.68-113.78-334.452-177.69-449.352-72.21z" fill="#f7c394" stroke="#333" stroke-miterlimit="10" stroke-width="5"/><path d="m996.518 1952.22c-66 68.19-30.1 196.68 21.652 267.88 73.75 101.45 232.17 158.69 307.94 97.86 79.14-63.53 57.39-247.22-44.75-337.18-76.26-67.16-216.64-99.08-284.842-28.56z" fill="#ffc9a1"/><path d="m875.908 2259.28c60.69 94.85 195.102 203.22 346.602 216.72-106.36-25-260.019-133.85-306.642-206.72-75.41-117.87-115.36-338.97-9.09-427.16 32.409-26.89 114.732-65.12 227.732-45.12-138.002-42.5-222.792-6.13-267.732 35.12-111.06 101.99-66.28 309.29 9.13 427.16z" fill="#000" fill-opacity=".1"/></g><g id="face" fill="none"><path d="m2395 2818c-115.35 45.22-271 79-395 79s-259.34-26.43-395-79c-7.24 10.54-16.61 26.27-23 37 142 57 275 86 418 86s276-29 418-86c-6.15-10.7-15.93-26.36-23-37z" fill="#000" fill-opacity=".15"/><path d="m2500.32 839c42.32-35.85-124.32-76-146.52-139.49-26.8-76.51 395.59 127.1 331.57 261.08-5 10.51-55.43 94-417.61-23.77 398.16 129.18 699.66 403.12 698.24 910.18-1.09 388.75-350.07 990.81-966.43 996.18-594.62 5.19-966.64-596.22-965.57-996.18 1.32-488.44 432.13-990.94 966-1028.5 319.41-22.45 465.29 50.1 500.32 20.5z" fill="#4477cf" stroke="#333" stroke-linecap="round" stroke-linejoin="round" stroke-width="5"/><path d="m2565.16 861.34c-29.66 65.16-211.81-40-531.22-17.54-653.46 45.937-1126.939 771.2-864.58 1359.08 68.14-70.38 151.14-90.38 177.59-99.16 7.94 8.57 17.6 17.67 21.05 21.78-81.37 25.35-175.93 80.41-216.63 156.84-76.27-147.6-117-302.56-116.59-435.33 1.32-488.45 432.22-991 966.09-1028.57 319.41-22.45 464.56 50.1 499.59 20.46 42.18-35.75-124.46-75.9-146.65-139.39-8.57-24.46 28.82-20.27 81.55 1.13-20-2.88-31 1.83-25.55 15.87 19.38 50.39 180.3 90.02 155.35 144.83z" fill="#000" fill-opacity="0.180000"/><path d="m2964.5 1847.07c-.36 127.74-38.12 278.51-110.54 423.57-74.96-102.64-209.23-143.64-222.96-143.64 4-5 16-19.7 20-24.5 23.5 5.5 128.62 27.91 187.28 106.2 59.3-132.15 86.52-255.16 86.84-370.86 1.47-524.24-353.62-784.84-657.36-901.02 398.16 129.18 698.16 403.18 696.74 910.25z" fill="#000" fill-opacity="0.180000"/><path d="m1725 1203.5c-297 0-665 628.5-363.5 918.5-575.499 180 0 779 638.5 779s1214-599 638.5-779c301.5-290-66.5-918.5-363.5-918.5-126.5 0-195.51 58.5-275 116.5-79.5-58-148.5-116.5-275-116.5z" fill="#ffcd98" stroke="#333" stroke-width="5"/><g fill="#000"><path d="m2749.1 1817c-15.7-308.54-265-613.19-481.5-613.19-134.6 0-216.2 82.14-267.6 116.19-41.1-28.05-132.5-116.19-268.4-116.19-255.6 0-478.1 373.19-482.13 622.71-22.47-268.52 183.6-671.52 483.53-671.52 156 0 239 75 267 106 28-31 111-106 267-106 297.63 0 503.5 381.5 482.1 662z" fill-opacity="0.180000"/><path d="m1148.6 2266.67c-135.93 245.26 334.32 633.83 851.4 633.83s993.17-392.85 849.75-637.86c95.36 224.1-359.03 600.36-849.75 600.36-487.79 0-939.69-371.78-851.4-596.33z" fill-opacity=".1"/><path d="m1250.37 1807.39c-7.11 117.45 24.02 230.01 111.45 314.11-10.42 3.26-20.47 7.66-30.15 11.19 22.33-7.19 43.66-12.28 68.33-16.69-84.54-81.32-133.47-191.77-149.63-308.61z" fill-opacity=".1"/><path d="m2670.5 2133c-21.76-6.41-44.6-12.37-70.5-17 85.32-82.07 134.37-193.81 150.07-311.86 7.89 118.62-23.01 232.49-111.25 317.36 11.32 3.54 21.24 7.64 31.68 11.5z" fill-opacity=".1"/></g></g><g id="eyes" fill="none"><path d="m1759.66 1403.06c154.89 18 266.48 208.75 250 376.77-16.38 167.34-162.69 342-329.88 323-151.8-17.3-250.26-186.22-253.5-328.16-4.31-190.16 160.84-391.67 333.38-371.61z" fill="#fff"/><path d="m1947.73 1825.22c22.11-113.95-39.5-221.76-137.6-240.79-98.1-19.04-195.55 57.91-217.66 171.87-22.11 113.95 39.5 221.76 137.6 240.79 98.1 19.04 195.55-57.91 217.66-171.87z" fill="#bc162e" stroke="#333" stroke-miterlimit="10" stroke-width="5"/><path d="m1781.2 1941.56c58.51 0 105.94-53.04 105.94-118.46s-47.43-118.46-105.94-118.46-105.94 53.04-105.94 118.46 47.43 118.46 105.94 118.46z" fill="#000"/><path d="m1874.89 1740.31c7.45-21.05-4.41-44.45-26.5-52.27-22.08-7.82-46.02 2.91-53.47 23.96s4.41 44.45 26.5 52.27c22.08 7.81 46.02-2.91 53.47-23.96z" fill="#fff" stroke="#333" stroke-miterlimit="10" stroke-width="5"/><path d="m1835.89 1427c-204.38-55.89-374.47 186.25-370.31 368.01 2.47 107.25 59.36 229.79 152.7 291.65-116.4-48.78-189.2-190.33-192-312-4.33-190.11 160.82-391.59 333.36-371.55 26.68 3.19 52.53 11.29 76.25 23.89z" fill="#000" fill-opacity=".05"/><path d="m1863.55 1605.84c-112.85-32.06-212.75 65.3-233.15 170.44-16.75 86.35 14.07 169.22 72.35 213.35-81.88-32-130.23-129.93-110.25-232.89 22.12-114 119.58-190.89 217.68-171.85 18.92 3.68 37 10.78 53.37 20.95z" fill="#000" fill-opacity="0.150000"/><path d="m2234 1398.91c-154.54 20.68-262.79 213.36-243.4 381.08 19.3 167 168.63 339.1 335.47 317.13 151.47-19.94 247-190.55 247.73-332.52.98-190.16-167.66-388.73-339.8-365.69z" fill="#fff"/><path d="m2273.74 1992.69c97.75-20.74 157.47-129.61 133.37-243.16-24.09-113.55-122.87-188.79-220.63-168.05-97.75 20.75-157.46 129.61-133.37 243.16 24.1 113.56 122.87 188.79 220.63 168.05z" fill="#bc162e" stroke="#333" stroke-miterlimit="10" stroke-width="5"/><path d="m2221.84 1937.71c58.5-1.03 105-54.88 103.86-120.3-1.15-65.41-49.49-117.61-107.99-116.59-58.51 1.02-105 54.88-103.86 120.29 1.14 65.42 49.49 117.62 107.99 116.6z" fill="#000"/><path d="m2288.34 1764.39c21.95-8.2 33.4-31.81 25.58-52.72-7.81-20.92-31.94-31.23-53.88-23.03-21.95 8.21-33.4 31.81-25.59 52.73 7.82 20.91 31.94 31.22 53.89 23.02z" fill="#fff" stroke="#333" stroke-miterlimit="10" stroke-width="5"/><g fill="#000"><path d="m2573.77 1764.6c-.66 123.27-72.75 268.13-190.88 317.21 95.29-61.62 152.08-188.08 152.66-297.55.96-183.58-181.09-431.24-385.95-355.18 26-15.6 54.29-26.14 84.37-30.17 172.17-23.04 340.81 175.53 339.8 365.69z" fill-opacity=".05"/><path d="m2295.09 1986.4c60.86-43.65 92.6-129.07 73.87-217.3-22.4-105.54-126.48-201.41-238.74-163.7 17.03-11.63 36.17-19.82 56.34-24.11 97.76-20.75 196.54 54.48 220.65 168 22.3 105.1-27.16 206.17-112.12 237.11z" fill-opacity="0.150000"/></g></g><g id="nose" fill="none"><path d="m1785 2099c0 76.35 98.85 169 216.26 168 108.22-.95 213.74-92.55 213.74-167.78 0-152.13-430-154.42-430-.22z" fill="#000" fill-opacity=".1"/><path d="m1782 2081c0 76.35 100.23 169 219.27 168 109.73-.95 216.73-92.55 216.73-167.78 0-60.53-126.24-113.77-216.73-113-84.02.78-219.27 41.16-219.27 112.78z" fill="#7a5d43"/><path d="m1783.58 2067.77c41.76 54.75 124.68 100.94 217.85 100.22 86.21-.68 170.92-47.12 214.09-101.55 1.62 4.86 2.48 9.8 2.48 14.78 0 75.23-107 166.83-216.73 167.78-119.04 1-219.27-91.65-219.27-168 0-4.54.54-8.95 1.58-13.23z" fill="#000" fill-opacity=".2"/></g><g id="mouth" fill="none"><path d="m2553.44 2324.73c25.17 3.95 44.7 32.65 36.52 57.37-2.03 5.72-11.21 6.33-12.73.46-4.44-17.08-15.69-33.52-29.9-46.56-4.54-4.17-.01-12.1 6.11-11.26z" fill="#000" fill-opacity=".1"/><path d="m1446.56 2324.73c-25.17 3.95-44.71 32.65-36.52 57.37 2.03 5.72 11.21 6.33 12.73.46 4.44-17.08 15.69-33.52 29.89-46.56 4.55-4.17.01-12.1-6.1-11.26z" fill="#000" fill-opacity=".1"/><path d="m2518.6 2374.5c-78.5 47.5-280.5 140-518.5 139s-440-91.5-518.71-139c7.21-8.5 15.5-14 22.5-18.5 7.15-4.6 3-17-7-16.5s-31.81 9-44.5 30-9.5 41-7 50.5 19.5 12 20.5 0c.37-4.49 1.5-24 6-28.5 23.71 13.5 228.21 154 528.21 154s504.5-140.5 528-154c4.5 4.5 5.63 24.01 6 28.5 1 12 18 9.5 20.5 0s5.69-29.5-7-50.5-34.5-29.5-44.5-30-14.15 11.9-7 16.5c7 4.5 14.5 8 22.5 18.5z" fill="#634b37"/><path d="m2253.86 2481.01c-75.94 19.42-162.18 32.87-253.76 32.49-91.02-.38-176.77-13.85-252.38-33 30.85 127.4 161.14 262.93 252.28 262.93 93.5 0 226.19-108.3 253.86-262.42z" fill="#e15f6b"/><g fill="#000"><path d="m2005.59 2513.51c7.13 42.73 4.7 94.77-2.47 129.79-.66 3.24 1.43 6.41 4.68 7.08 3.24.66 6.41-1.43 7.08-4.68 7.28-35.58 9.91-88.13 2.85-132.3-4.04.06-8.08.1-12.14.11z" fill-opacity=".2"/><path d="m2000.1 2513.5c91.58.38 177.82-13.07 253.76-32.49-.96 5.33-2.04 10.61-3.24 15.83-75.15 18.97-160.24 32.04-250.52 31.66-89.25-.38-173.44-13.34-247.97-31.9-1.64-5.37-3.11-10.75-4.41-16.1 75.61 19.15 161.36 32.62 252.38 33z" fill-opacity=".05"/><path d="m1761.91 2483.99c42.47 116.56 154.92 229.44 238.09 229.44 86.69 0 203.65-93.11 242.26-229.52 3.89-.95 7.76-1.91 11.6-2.9-27.67 154.12-160.36 262.42-253.86 262.42-91.14 0-221.43-135.53-252.28-262.93 4.7 1.18 9.42 2.35 14.19 3.49z" fill-opacity=".2"/></g></g><g id="hat" fill="none"><path d="m2617 1372c-323.5-103-742.5-98-886.5-98-8-12.5-13.5-28-16-47.5 57-19.5 864.5 48 902.5 80z" fill="#000" fill-opacity=".2"/><g stroke="#333" stroke-linecap="round" stroke-miterlimit="10" stroke-width="5"><path d="m2656.43 1372.21c-17.35-10.75-46.18-21.85-82.46-32.64-186.98-55.61-389.97-78.04-584.23-84.84-119.22-3.76-107.22-160.46-1-157.39 179.88 5.68 362.55 22.16 537.56 66.15 79.15 19.9 144.55 44 178.38 70.27 95.91 74.53-48.21 138.24-48.25 138.45z" fill="#808080"/><path d="m2379.72 1236.17c14.79 0 26.78-11.99 26.78-26.78s-11.99-26.78-26.78-26.78-26.78 11.99-26.78 26.78 11.99 26.78 26.78 26.78z" fill="#4d4d4d"/><path d="m2498.72 1256.13c14.79 0 26.78-11.99 26.78-26.78s-11.99-26.78-26.78-26.78-26.78 11.99-26.78 26.78 11.99 26.78 26.78 26.78z" fill="#4d4d4d"/></g><path d="m2379.72 1226.93c9.78 0 17.71-7.93 17.71-17.71s-7.93-17.71-17.71-17.71-17.71 7.93-17.71 17.71 7.93 17.71 17.71 17.71z" fill="#333"/><path d="m2498.72 1247.22c9.78 0 17.71-7.93 17.71-17.71s-7.93-17.71-17.71-17.71-17.71 7.93-17.71 17.71 7.93 17.71 17.71 17.71z" fill="#333"/><g stroke="#333" stroke-linecap="round" stroke-miterlimit="10" stroke-width="5"><path d="m1170.72 1370.28c-74.57 131.1-119.22 250.72-134 408.13-38.796-2.16-76.22 2.59-111.57 16.03 55.001-166.67 145.85-296.44 242.26-437.95 1.11 4.59 2.23 9.19 3.31 13.79z" fill="#808080"/><g fill="#4d4d4d"><path d="m2120.85 1209.8c14.79 0 26.78-11.99 26.78-26.78s-11.99-26.78-26.78-26.78-26.78 11.99-26.78 26.78 11.99 26.78 26.78 26.78z"/><path d="m2242.33 1216.85c14.79 0 26.78-11.99 26.78-26.78s-11.99-26.78-26.78-26.78-26.78 11.99-26.78 26.78 11.99 26.78 26.78 26.78z"/><path d="m1997.61 1202.56c14.79 0 26.78-11.99 26.78-26.78s-11.99-26.78-26.78-26.78-26.78 11.99-26.78 26.78 11.99 26.78 26.78 26.78z"/></g></g><path d="m2718.26 1329c-24 26.33-61.81 43.09-61.83 43.22-17.35-10.75-46.18-21.85-82.46-32.64-66.21-19.69-157.25-38.33-248.72-51.84-141.53-21.74-284.1-31.2-335.51-33-98-3.09-107.33-109.5-48.57-145.58-34.63 44.9-16.2 124.91 68.57 127.58 51.41 1.75 194 11.21 335.51 33 91.47 13.51 182.51 32.15 248.72 51.84 36.28 10.79 65.11 21.89 82.46 32.64 14.74-7.01 28.75-15.46 41.83-25.22z" fill="#000" fill-opacity=".15"/><path d="m2260.7 1116.42c-138.13-15.86-277.67-23.89-416.71-20.26-132.85 3.5-256.17 20-311.45 51.23-105.69 59.77 6.79 117.11 6.79 117.37 19.79-8.57 115.22-10.52 229.6-9.31 191.42 2 435.94 13 467.94 16.54 118.49 13.59 129.37-143.19 23.83-155.57zm-425.68 81.64c-8.92-5.96-13.49-16.99-11.39-27.51 3.25-16.34 21.3-25.83 36.52-19.52 17.39 7.2 21.87 30.52 8.69 43.69-8.93 8.94-23.34 10.34-33.82 3.34zm147.7 0c-13.86-9.25-15.72-29.57-4.07-41.22 7.58-7.58 19.29-9.91 29.2-5.81 17.39 7.2 21.87 30.52 8.7 43.69-8.94 8.94-23.34 10.34-33.83 3.34zm123.24 7.24c-8.91-5.95-13.49-16.98-11.4-27.5 3.21-16.16 21.13-25.91 36.53-19.53 17.09 7.08 22 30.38 8.7 43.69-8.94 8.94-23.34 10.34-33.83 3.34zm121.49 6.99c-8.9-5.95-13.47-16.98-11.37-27.49 3.21-16.15 21.12-25.89 36.51-19.51 13.47 5.58 20.01 21.67 14.5 35-6.34 15.37-25.78 21.27-39.64 12z" fill="#808080" stroke="#333" stroke-linecap="round" stroke-miterlimit="10" stroke-width="5"/><path d="m2926.13 1553.16c-26.56-25.71-119.63-103.1-326.37-159.93-7.24-2-12.87-8.08-14.31-15.46-40.43-207.12-79.45-375.44-364.77-399.21-285.32-23.767-405.6 102.75-465.2 308.4-2.62 9-11.15 14.3-20.54 14.36-246.13 1.55-539.88 132.16-622.26 180.45 8.56-20.16 17.77-40.1 27.63-59.83 96.57-53.26 350.48-165.49 582-166.94 9.39-.06 17.92-5.33 20.54-14.36 59.6-205.65 176.08-328.245 487.79-308.08 313.38 20.273 326.02 180.52 369.36 402.9 1.44 7.38 7.07 13.46 14.31 15.46 137.4 37.77 229.25 79.38 279.29 109.32 12.61 30.33 23.47 61.35 32.53 92.92z" fill="#000" fill-opacity=".2"/><path d="m1997.61 1193.49c9.78 0 17.71-7.93 17.71-17.71s-7.93-17.71-17.71-17.71-17.71 7.93-17.71 17.71 7.93 17.71 17.71 17.71z" fill="#333"/><path d="m2120.85 1200.73c9.78 0 17.71-7.93 17.71-17.71s-7.93-17.71-17.71-17.71-17.71 7.93-17.71 17.71 7.93 17.71 17.71 17.71z" fill="#333"/><path d="m2242.33 1207.78c9.78 0 17.71-7.93 17.71-17.71s-7.93-17.71-17.71-17.71-17.71 7.93-17.71 17.71 7.93 17.71 17.71 17.71z" fill="#333"/><path d="m2307.55 1136.27c27.2 49.47-2.74 125.35-86.7 115.72-32-3.59-276.52-14.5-467.94-16.54-114.38-1.21-209.81.74-229.6 9.31-10.96-6.05-21.16-13.38-30.38-21.84 13.5 24.87 46.38 41.7 46.38 41.84 19.79-8.57 115.22-10.52 229.6-9.31 191.42 2 435.94 13 467.94 16.54 96.48 11.06 121.62-90.78 70.7-135.72z" fill="#000" fill-opacity=".15"/><path d="m2919.09 1526.71s-53.25-81.67-304.7-150.79c-7.24-2-12.87-8.08-14.31-15.46-40.43-207.12-79.95-378.79-369.4-402.9-311.28-25.93-428.19 102.43-487.79 308.08-2.62 9-11.15 14.3-20.54 14.36-254.85 1.6-536.76 137.37-606.22 181-5.69 3.58-13.35-2.33-10.9-8.88 11.77-31.45 29.5-67.65 39.33-119.2 53.09-278.35 352.22-772.14 976.29-755.08 583.47 16 798.24 482.71 798.24 948.87z" fill="#f2f2f2" stroke="#333" stroke-linecap="round" stroke-miterlimit="10" stroke-width="5"/><path d="m2919.09 1526.71s-31.09-40.21-96.2-72.26c-35.82-421.46-260.54-812-792-826.56-177.95-4.86-329.49 31.81-456.42 93.18 143.35-90.61 324.3-149.25 546.42-143.18 583.43 15.95 798.2 482.67 798.2 948.82z" fill="#000" fill-opacity=".1"/></g><g id="shoes" fill="none"><g stroke="#333" stroke-width="5"><path d="m2014.5 3490.5c-1.5-31.5-1.5-64.5 15-83.5-4-4 .67-9.27 4.5-8 29.5 9.83 107.5 9.5 181-13 119.5 84.5 203 82 220 97 18.31 16.15-419 39-420.5 7.5z" fill="#ba2839"/><path d="m2216.5 3368c16-7 61 24 57.5 35.5-9 12-83.38 2.73-71-8 15-13 8-25.09 13.5-27.5z" fill="#a82639"/><path d="m2239.5 3387c29.93 14.48 118.3 57.57 103 68.5-42 30-155.3-34.43-158.5-43.5-3-8.5 9.7-14.74 18.5-19.5 9.71-5.26 21.5-13 37-5.5z" fill="#a82639"/><path d="m2012.72 3543.07c-.72-12.67-1.51-32.28-.22-42.57 95.5 16 367 13.5 430-15.5 9 5.5 17 27.5 11.5 45-54.16 49.23-364.32 30.36-428.77 25.86-6.88-.48-12.12-5.91-12.51-12.79z" fill="#e6e6e6"/></g><path clip-rule="evenodd" d="m2013.85 3500.72c.13 7.83.5 15.97.87 22.35.39 6.88 5.63 12.31 12.51 12.79 64.18 4.48 372.05 23.22 428.08-25.25.89 6.4.64 13.18-1.31 19.39-54.16 49.23-364.32 30.36-428.77 25.86-6.88-.48-12.12-5.91-12.51-12.79-.72-12.67-1.51-32.28-.22-42.57.45.08.9.15 1.35.22z" fill="#000" fill-opacity=".15" fill-rule="evenodd"/><g stroke="#333" stroke-width="5"><path d="m2015 3492c-3.5.5-5.5 5-2.5 8.5 95.5 16 367 13.5 430-15.5 1.5-3.5-2.5-8.68-6.5-7.5-106.5 31.5-340.5 22-421 14.5z" fill="#999"/><path d="m1985.51 3490.5c1.5-31.5 1.5-64.5-15-83.5 4-4-.68-9.27-4.5-8-29.5 9.83-107.5 9.5-181-13-119.5 84.5-203 82-220 97-18.31 16.15 419 39 420.5 7.5z" fill="#ba2839"/><path d="m1783.51 3368c-16-7-61 24-57.5 35.5 9 12 83.37 2.73 71-8-15-13-8-25.09-13.5-27.5z" fill="#a82639"/><path d="m1760.51 3387c-29.93 14.48-118.3 57.57-103.01 68.5 42.01 30 155.31-34.43 158.51-43.5 3-8.5-9.7-14.74-18.5-19.5-9.71-5.26-21.5-13-37-5.5z" fill="#a82639"/><path d="m1987.29 3543.07c.72-12.67 1.5-32.28.22-42.57-95.5 16-367 13.5-430-15.5-9 5.5-17 27.5-11.5 45 54.15 49.23 364.32 30.36 428.77 25.86 6.87-.48 12.12-5.91 12.51-12.79z" fill="#e6e6e6"/></g><path clip-rule="evenodd" d="m1986.15 3500.72c-.12 7.83-.5 15.97-.86 22.35-.39 6.88-5.64 12.31-12.51 12.79-64.18 4.48-372.05 23.22-428.09-25.25-.89 6.4-.64 13.18 1.32 19.39 54.15 49.23 364.32 30.36 428.77 25.86 6.87-.48 12.12-5.91 12.51-12.79.72-12.67 1.5-32.28.22-42.57-.45.08-.9.15-1.36.22z" fill="#000" fill-opacity=".15" fill-rule="evenodd"/><path d="m1985.01 3492c3.5.5 5.5 5 2.5 8.5-95.5 16-367 13.5-430-15.5-1.5-3.5 2.5-8.68 6.5-7.5 106.5 31.5 340.5 22 421 14.5z" fill="#999" stroke="#333" stroke-width="5"/></g><g id="handLeft" fill="none"><path d="m1601.4 3259.89c56.82.05 92.99-68.11 58.59-115.27 15.91-45.21-18.09-95.39-66.66-96.55-56-1.34-88.37 58.5-82.5 109.13 5.48 47.31 37.52 102.65 90.57 102.69z" fill="#f7c394" stroke="#333" stroke-miterlimit="10" stroke-width="5"/><path d="m1510.83 3157.2c6.78 58.57 54.37 126.8 125.37 93.8-68.82-8.8-117-125.5-83.11-191.84-5.39 3.84-13.89 8.34-27.6 27.61-12.29 21.73-17.7 46.2-14.66 70.43z" fill="#000" fill-opacity=".1"/></g><g id="handRight" fill="none"><path d="m2398.6 3259.89c-56.82.05-92.99-68.11-58.59-115.27-15.92-45.21 18.08-95.39 66.66-96.55 56-1.34 88.36 58.5 82.5 109.13-5.48 47.31-37.53 102.65-90.57 102.69z" fill="#f7c394" stroke="#333" stroke-miterlimit="10" stroke-width="5"/><path d="m2489.17 3157.2c-6.78 58.57-54.37 126.8-125.37 93.8 68.82-8.8 117-125.5 83.11-191.84 5.39 3.84 13.89 8.34 27.6 27.61 12.29 21.73 17.7 46.2 14.66 70.43z" fill="#000" fill-opacity=".1"/></g></svg>